<svg xmlns="http://www.w3.org/2000/svg" viewBox="0 0 32 32" width="32" height="32">
  <!-- Background circle -->
  <circle cx="16" cy="16" r="15" fill="#2D5016" stroke="#1A3009" stroke-width="2"/>
  
  <!-- Tea leaf -->
  <path d="M16 6c-3 0-6 3-6 8s3 8 6 8c1.5 0 3-.5 4-1.5 1-1 2-2.5 2-4.5s-1-3.5-2-4.5c-1-1-2.5-1.5-4-1.5z" fill="#4CAF50"/>
  
  <!-- Leaf vein -->
  <path d="M16 8c0 2 1 4 2 6s2 4 2 6" fill="none" stroke="#2D5016" stroke-width="1.5" stroke-linecap="round"/>
  
  <!-- Small tea leaves accent -->
  <ellipse cx="12" cy="12" rx="2" ry="4" fill="#66BB6A" opacity="0.8" transform="rotate(-30 12 12)"/>
  <ellipse cx="20" cy="20" rx="1.5" ry="3" fill="#66BB6A" opacity="0.8" transform="rotate(45 20 20)"/>
  
  <!-- Highlight -->
  <ellipse cx="14" cy="10" rx="1" ry="2" fill="#81C784" opacity="0.6" transform="rotate(-20 14 10)"/>
</svg>